<svg preserveAspectRatio="none" overflow="visible" style="display: block;" width="34" height="34" viewBox="0 0 34 34" fill="none" xmlns="http://www.w3.org/2000/svg">
<g id="phosphor/clock-afternoon">
<path id="Vector" d="M16.999 4.1875C20.3963 4.19111 23.6534 5.54212 26.0557 7.94434C28.4579 10.3465 29.8089 13.6037 29.8125 17.001C29.8123 19.5347 29.0609 22.0115 27.6533 24.1182C26.2455 26.2251 24.2444 27.8672 21.9033 28.8369C19.5621 29.8067 16.9854 30.0608 14.5 29.5664C12.0148 29.072 9.73219 27.8513 7.94042 26.0596C6.14865 24.2678 4.92801 21.9852 4.43359 19.5C3.93921 17.0146 4.19333 14.4379 5.16308 12.0967C6.13284 9.75561 7.7749 7.75448 9.88183 6.34668C11.9885 4.93905 14.4653 4.18769 16.999 4.1875ZM21.8555 5.27832C19.5371 4.31803 16.9855 4.06709 14.5244 4.55664C12.0634 5.04625 9.80259 6.25405 8.02831 8.02832C6.25404 9.8026 5.04624 12.0634 4.55663 14.5244C4.06708 16.9855 4.31803 19.5371 5.27831 21.8555C6.23857 24.1737 7.86488 26.1547 9.95117 27.5488C12.0376 28.9429 14.4906 29.6875 17 29.6875H17.001C20.3644 29.6837 23.5894 28.3461 25.9678 25.9678C28.3461 23.5894 29.6837 20.3644 29.6875 17.001V17C29.6875 14.4906 28.9429 12.0376 27.5488 9.95117C26.1547 7.86488 24.1736 6.23858 21.8555 5.27832ZM16.999 16.9375H24.4375C24.4541 16.9375 24.4697 16.9443 24.4814 16.9561C24.4932 16.9678 24.5 16.9834 24.5 17C24.5 17.0166 24.4932 17.0322 24.4814 17.0439C24.4697 17.0557 24.4541 17.0625 24.4375 17.0625H17.1494L18.8574 18.7695L22.3574 22.2676C22.3632 22.2734 22.3679 22.2805 22.3711 22.2881C22.3743 22.2957 22.376 22.3042 22.376 22.3125C22.376 22.3208 22.3743 22.3293 22.3711 22.3369C22.3679 22.3445 22.3632 22.3516 22.3574 22.3574C22.3516 22.3632 22.3445 22.3679 22.3369 22.3711C22.3292 22.3743 22.3208 22.376 22.3125 22.376C22.3042 22.376 22.2957 22.3743 22.2881 22.3711C22.2805 22.3679 22.2734 22.3632 22.2676 22.3574L16.9551 17.0449V17.0439L16.9375 17.0117C16.9352 16.9999 16.9369 16.9877 16.9414 16.9766C16.9461 16.9651 16.9545 16.9551 16.9648 16.9482L16.999 16.9375Z" stroke="#A95C28" stroke-width="2"/>
</g>
</svg>
